<svg id="svg" version="1.1" xmlns="http://www.w3.org/2000/svg" xmlns:xlink="http://www.w3.org/1999/xlink" width="400" height="400" viewBox="0, 0, 400,400"><g id="svgg"><path id="path0" d="M176.319 4.803 L 175.637 6.000 171.009 6.000 C 166.470 6.000,166.373 6.019,166.009 6.976 C 165.470 8.395,164.405 8.800,161.216 8.800 C 158.554 8.800,158.357 8.862,157.997 9.807 C 157.569 10.932,156.188 11.599,154.274 11.603 C 153.279 11.605,152.851 11.867,152.319 12.803 C 151.719 13.856,151.419 14.000,149.828 14.000 C 148.290 14.000,147.913 14.165,147.318 15.100 C 146.348 16.624,146.039 16.787,144.090 16.794 C 142.634 16.799,142.323 16.949,141.997 17.807 C 141.569 18.932,140.188 19.599,138.274 19.603 C 137.279 19.605,136.851 19.867,136.319 20.803 C 135.717 21.860,135.422 22.000,133.800 22.000 C 132.176 22.000,131.884 22.140,131.281 23.201 C 130.907 23.862,130.274 24.507,129.876 24.636 C 129.477 24.764,128.955 25.300,128.715 25.827 C 128.475 26.354,127.941 26.892,127.529 27.023 C 127.116 27.154,126.473 27.742,126.099 28.330 C 125.152 29.820,124.831 29.987,122.910 29.994 C 121.449 29.999,121.139 30.159,120.615 31.172 C 120.281 31.816,119.636 32.461,119.181 32.606 C 118.726 32.750,118.188 33.306,117.984 33.841 C 117.781 34.377,117.158 34.988,116.600 35.200 C 116.042 35.412,115.412 36.042,115.200 36.600 C 114.988 37.158,114.377 37.781,113.841 37.984 C 113.306 38.188,112.750 38.726,112.606 39.181 C 112.461 39.636,111.839 40.270,111.222 40.588 C 110.606 40.907,110.006 41.533,109.890 41.979 C 109.641 42.931,108.107 43.600,106.174 43.600 L 104.800 43.600 104.794 46.700 C 104.787 50.080,104.709 50.295,103.130 51.299 C 102.542 51.673,101.954 52.316,101.823 52.729 C 101.692 53.141,101.135 53.683,100.586 53.933 C 100.037 54.184,99.391 54.821,99.150 55.350 C 98.909 55.879,98.282 56.508,97.756 56.747 C 96.992 57.095,96.800 57.488,96.800 58.702 C 96.800 60.366,95.892 62.000,94.967 62.000 C 94.644 62.000,94.208 62.452,93.998 63.005 C 93.788 63.558,93.162 64.217,92.608 64.469 C 91.829 64.824,91.600 65.226,91.600 66.238 C 91.600 68.183,90.940 69.566,89.807 69.997 C 88.949 70.323,88.799 70.634,88.794 72.090 C 88.787 74.032,88.622 74.350,87.130 75.299 C 86.542 75.673,85.954 76.316,85.823 76.729 C 85.692 77.141,85.138 77.682,84.592 77.931 C 83.685 78.344,83.600 78.604,83.600 80.965 C 83.600 84.145,83.117 85.499,81.807 85.997 C 80.862 86.357,80.800 86.554,80.800 89.216 C 80.800 92.405,80.395 93.470,78.976 94.009 C 78.019 94.373,78.000 94.470,78.000 99.009 L 78.000 103.637 76.803 104.319 L 75.605 105.000 75.605 128.000 L 75.605 151.000 76.803 151.681 L 78.000 152.363 78.000 156.991 C 78.000 161.530,78.019 161.627,78.976 161.991 C 80.395 162.530,80.800 163.595,80.800 166.784 C 80.800 169.446,80.862 169.643,81.807 170.003 C 82.932 170.431,83.599 171.812,83.603 173.726 C 83.605 174.721,83.867 175.149,84.803 175.681 C 85.856 176.281,86.000 176.581,86.000 178.172 C 86.000 179.710,86.165 180.087,87.100 180.682 C 88.624 181.652,88.787 181.961,88.794 183.910 C 88.799 185.366,88.949 185.677,89.807 186.003 C 90.361 186.213,90.981 186.824,91.185 187.360 C 91.389 187.896,92.061 188.576,92.678 188.871 C 93.669 189.344,93.814 189.653,93.922 191.521 C 94.025 193.326,94.183 193.689,94.997 193.999 C 96.212 194.461,96.800 195.564,96.800 197.382 C 96.800 198.507,97.007 198.911,97.756 199.253 C 98.282 199.492,98.909 200.121,99.150 200.650 C 99.391 201.179,100.037 201.816,100.586 202.067 C 101.135 202.317,101.692 202.859,101.823 203.271 C 101.954 203.684,102.542 204.327,103.130 204.701 C 104.622 205.650,104.787 205.968,104.794 207.910 C 104.799 209.366,104.949 209.677,105.807 210.003 C 106.361 210.213,106.988 210.842,107.200 211.400 C 107.412 211.958,108.056 212.593,108.632 212.812 C 109.207 213.031,109.773 213.575,109.890 214.021 C 110.006 214.467,110.606 215.093,111.222 215.412 C 111.839 215.730,112.461 216.364,112.606 216.819 C 112.750 217.274,113.306 217.812,113.841 218.016 C 114.935 218.432,115.599 219.830,115.603 221.726 C 115.605 222.721,115.867 223.149,116.803 223.681 C 117.461 224.056,118.000 224.646,118.000 224.991 C 118.000 225.337,118.452 225.792,119.005 226.002 C 119.558 226.212,120.217 226.838,120.469 227.392 C 120.722 227.946,121.088 228.400,121.282 228.400 C 122.289 228.400,123.600 230.431,123.600 231.990 C 123.600 233.334,123.773 233.696,124.592 234.069 C 125.138 234.318,125.692 234.859,125.823 235.271 C 125.954 235.684,126.542 236.327,127.130 236.701 C 128.622 237.650,128.787 237.968,128.794 239.910 C 128.799 241.366,128.949 241.677,129.807 242.003 C 130.940 242.434,131.600 243.817,131.600 245.762 C 131.600 246.774,131.829 247.176,132.608 247.531 C 133.162 247.783,133.788 248.442,133.998 248.995 C 134.208 249.548,134.644 250.000,134.967 250.000 C 135.892 250.000,136.800 251.634,136.800 253.298 C 136.800 254.512,136.992 254.905,137.756 255.253 C 138.922 255.784,139.600 257.173,139.600 259.029 C 139.600 260.158,139.795 260.494,140.639 260.815 C 141.210 261.032,141.773 261.575,141.890 262.021 C 142.006 262.467,142.606 263.093,143.222 263.412 C 143.839 263.730,144.461 264.364,144.606 264.819 C 144.750 265.274,145.306 265.812,145.841 266.016 C 146.935 266.432,147.599 267.830,147.603 269.726 C 147.605 270.721,147.867 271.149,148.803 271.681 C 149.856 272.281,150.000 272.581,150.000 274.172 C 150.000 275.710,150.165 276.087,151.100 276.682 C 152.624 277.652,152.787 277.961,152.794 279.910 C 152.799 281.366,152.949 281.677,153.807 282.003 C 154.361 282.213,154.981 282.824,155.185 283.360 C 155.389 283.896,156.061 284.576,156.678 284.871 C 157.669 285.344,157.814 285.653,157.922 287.521 C 158.025 289.326,158.183 289.689,158.997 289.999 C 160.212 290.461,160.800 291.564,160.800 293.382 C 160.800 294.507,161.007 294.911,161.756 295.253 C 162.915 295.781,163.600 297.171,163.600 298.997 C 163.600 300.086,163.819 300.461,164.700 300.882 C 165.666 301.343,165.815 301.664,165.922 303.521 C 166.025 305.326,166.183 305.689,166.997 305.999 C 168.212 306.461,168.800 307.564,168.800 309.382 C 168.800 310.507,169.007 310.911,169.756 311.253 C 170.915 311.781,171.600 313.171,171.600 314.997 C 171.600 316.086,171.819 316.461,172.700 316.882 C 173.666 317.343,173.815 317.664,173.922 319.521 C 174.025 321.326,174.183 321.689,174.997 321.999 C 176.212 322.461,176.800 323.564,176.800 325.382 C 176.800 326.507,177.007 326.911,177.756 327.253 C 179.104 327.867,179.600 329.226,179.603 332.319 C 179.605 334.877,179.660 335.031,180.803 335.681 C 181.856 336.281,182.000 336.581,182.000 338.172 C 182.000 339.710,182.165 340.087,183.100 340.682 C 184.624 341.652,184.787 341.961,184.794 343.910 C 184.799 345.366,184.949 345.677,185.807 346.003 C 187.115 346.500,187.600 347.855,187.600 351.012 C 187.600 353.260,187.710 353.630,188.500 354.046 C 189.860 354.762,189.987 355.142,189.994 358.510 C 190.000 361.436,190.058 361.642,190.976 361.991 C 192.395 362.530,192.800 363.595,192.800 366.784 C 192.800 369.446,192.862 369.643,193.807 370.003 C 195.226 370.542,195.600 371.876,195.600 376.404 C 195.600 380.321,195.610 380.361,196.700 380.883 C 197.797 381.408,197.800 381.422,197.913 386.101 L 198.025 390.793 199.164 391.381 C 200.504 392.075,200.800 392.704,200.800 394.866 C 200.800 398.609,201.800 396.155,201.899 392.168 C 202.024 387.166,202.153 386.641,203.390 386.077 C 204.318 385.654,204.400 385.408,204.400 383.035 C 204.400 379.855,204.883 378.501,206.193 378.003 C 207.138 377.643,207.200 377.446,207.200 374.784 C 207.200 371.595,207.605 370.530,209.024 369.991 C 209.981 369.627,210.000 369.530,210.000 364.991 L 210.000 360.363 211.197 359.681 C 212.133 359.149,212.395 358.721,212.397 357.726 C 212.401 355.812,213.068 354.431,214.193 354.003 C 215.138 353.643,215.200 353.446,215.200 350.784 C 215.200 347.595,215.605 346.530,217.024 345.991 C 217.942 345.642,218.000 345.436,218.006 342.510 C 218.013 339.142,218.140 338.762,219.500 338.046 C 220.290 337.630,220.400 337.260,220.400 335.012 C 220.400 331.855,220.885 330.500,222.193 330.003 C 223.051 329.677,223.201 329.366,223.206 327.910 C 223.213 325.961,223.376 325.652,224.900 324.682 C 225.835 324.087,226.000 323.710,226.000 322.172 C 226.000 320.581,226.144 320.281,227.197 319.681 C 228.340 319.031,228.395 318.877,228.397 316.319 C 228.400 313.226,228.896 311.867,230.244 311.253 C 230.993 310.911,231.200 310.507,231.200 309.382 C 231.200 307.564,231.788 306.461,233.003 305.999 C 233.817 305.689,233.975 305.326,234.078 303.521 C 234.185 301.664,234.334 301.343,235.300 300.882 C 236.181 300.461,236.400 300.086,236.400 298.997 C 236.400 297.171,237.085 295.781,238.244 295.253 C 238.993 294.911,239.200 294.507,239.200 293.382 C 239.200 291.564,239.788 290.461,241.003 289.999 C 241.817 289.689,241.975 289.326,242.078 287.521 C 242.185 285.664,242.334 285.343,243.300 284.882 C 244.181 284.461,244.400 284.086,244.400 282.997 C 244.400 281.171,245.085 279.781,246.244 279.253 C 246.993 278.911,247.200 278.507,247.200 277.382 C 247.200 275.564,247.788 274.461,249.003 273.999 C 249.817 273.689,249.975 273.326,250.078 271.521 C 250.185 269.664,250.334 269.343,251.300 268.882 C 252.181 268.461,252.400 268.086,252.400 266.997 C 252.400 265.233,253.123 263.678,254.085 263.373 C 254.505 263.240,255.027 262.739,255.245 262.261 C 255.463 261.782,256.172 261.086,256.821 260.714 C 257.857 260.119,258.000 259.814,258.000 258.200 C 258.000 256.578,258.140 256.283,259.197 255.681 C 260.133 255.149,260.395 254.721,260.397 253.726 C 260.401 251.830,261.065 250.432,262.159 250.016 C 262.694 249.812,263.250 249.274,263.394 248.819 C 263.539 248.364,264.184 247.719,264.828 247.385 C 265.841 246.861,266.001 246.551,266.006 245.090 C 266.013 243.165,266.236 242.712,267.500 242.046 C 268.205 241.675,268.400 241.224,268.400 239.968 C 268.400 238.430,269.719 236.400,270.718 236.400 C 270.912 236.400,271.278 235.946,271.531 235.392 C 271.783 234.838,272.442 234.212,272.995 234.002 C 273.548 233.792,274.000 233.337,274.000 232.991 C 274.000 232.646,274.539 232.056,275.197 231.681 C 276.133 231.149,276.395 230.721,276.397 229.726 C 276.401 227.830,277.065 226.432,278.159 226.016 C 278.694 225.812,279.250 225.274,279.394 224.819 C 279.539 224.364,280.161 223.730,280.778 223.412 C 281.394 223.093,281.994 222.467,282.110 222.021 C 282.227 221.575,282.793 221.031,283.368 220.812 C 283.944 220.593,284.588 219.958,284.800 219.400 C 285.012 218.842,285.623 218.219,286.159 218.016 C 286.694 217.812,287.250 217.274,287.394 216.819 C 287.539 216.364,288.161 215.730,288.778 215.412 C 289.394 215.093,289.994 214.467,290.110 214.021 C 290.227 213.575,290.790 213.032,291.361 212.815 C 292.205 212.494,292.400 212.158,292.400 211.029 C 292.400 209.190,293.076 207.785,294.209 207.268 C 294.716 207.038,295.240 206.505,295.373 206.085 C 295.506 205.665,296.065 205.117,296.614 204.867 C 297.163 204.616,297.809 203.979,298.050 203.450 C 298.291 202.921,298.921 202.291,299.450 202.050 C 299.979 201.809,300.609 201.179,300.850 200.650 C 301.091 200.121,301.718 199.492,302.244 199.253 C 302.993 198.911,303.200 198.507,303.200 197.382 C 303.200 195.564,303.788 194.461,305.003 193.999 C 305.817 193.689,305.975 193.326,306.078 191.521 C 306.186 189.653,306.331 189.344,307.322 188.871 C 307.939 188.576,308.611 187.896,308.815 187.360 C 309.019 186.824,309.639 186.213,310.193 186.003 C 311.051 185.677,311.201 185.366,311.206 183.910 C 311.213 181.961,311.376 181.652,312.900 180.682 C 313.835 180.087,314.000 179.710,314.000 178.172 C 314.000 176.581,314.144 176.281,315.197 175.681 C 316.133 175.149,316.395 174.721,316.397 173.726 C 316.401 171.812,317.068 170.431,318.193 170.003 C 319.138 169.643,319.200 169.446,319.200 166.784 C 319.200 163.595,319.605 162.530,321.024 161.991 C 321.981 161.627,322.000 161.530,322.000 156.991 L 322.000 152.363 323.197 151.681 L 324.395 151.000 324.395 128.000 L 324.395 105.000 323.197 104.319 L 322.000 103.637 322.000 99.009 C 322.000 94.470,321.981 94.373,321.024 94.009 C 319.605 93.470,319.200 92.405,319.200 89.216 C 319.200 86.554,319.138 86.357,318.193 85.997 C 316.883 85.499,316.400 84.145,316.400 80.965 C 316.400 78.604,316.315 78.344,315.408 77.931 C 314.862 77.682,314.308 77.141,314.177 76.729 C 314.046 76.316,313.458 75.673,312.870 75.299 C 311.378 74.350,311.213 74.032,311.206 72.090 C 311.201 70.634,311.051 70.323,310.193 69.997 C 309.060 69.566,308.400 68.183,308.400 66.238 C 308.400 65.226,308.171 64.824,307.392 64.469 C 306.838 64.217,306.212 63.558,306.002 63.005 C 305.792 62.452,305.356 62.000,305.033 62.000 C 304.108 62.000,303.200 60.366,303.200 58.702 C 303.200 57.488,303.008 57.095,302.244 56.747 C 301.718 56.508,301.091 55.879,300.850 55.350 C 300.609 54.821,299.963 54.184,299.414 53.933 C 298.865 53.683,298.308 53.141,298.177 52.729 C 298.046 52.316,297.458 51.673,296.870 51.299 C 295.291 50.295,295.213 50.080,295.206 46.700 L 295.200 43.600 293.826 43.600 C 291.893 43.600,290.359 42.931,290.110 41.979 C 289.994 41.533,289.394 40.907,288.778 40.588 C 288.161 40.270,287.539 39.636,287.394 39.181 C 287.250 38.726,286.694 38.188,286.159 37.984 C 285.623 37.781,285.012 37.158,284.800 36.600 C 284.588 36.042,283.958 35.412,283.400 35.200 C 282.842 34.988,282.219 34.377,282.016 33.841 C 281.812 33.306,281.274 32.750,280.819 32.606 C 280.364 32.461,279.719 31.816,279.385 31.172 C 278.861 30.159,278.551 29.999,277.090 29.994 C 275.169 29.987,274.848 29.820,273.901 28.330 C 273.527 27.742,272.884 27.154,272.471 27.023 C 272.059 26.892,271.525 26.354,271.285 25.827 C 271.045 25.300,270.523 24.764,270.124 24.636 C 269.726 24.507,269.093 23.862,268.719 23.201 C 268.116 22.140,267.824 22.000,266.200 22.000 C 264.578 22.000,264.283 21.860,263.681 20.803 C 263.149 19.867,262.721 19.605,261.726 19.603 C 259.812 19.599,258.431 18.932,258.003 17.807 C 257.677 16.949,257.366 16.799,255.910 16.794 C 253.961 16.787,253.652 16.624,252.682 15.100 C 252.087 14.165,251.710 14.000,250.172 14.000 C 248.581 14.000,248.281 13.856,247.681 12.803 C 247.149 11.867,246.721 11.605,245.726 11.603 C 243.812 11.599,242.431 10.932,242.003 9.807 C 241.643 8.862,241.446 8.800,238.784 8.800 C 235.595 8.800,234.530 8.395,233.991 6.976 C 233.627 6.019,233.530 6.000,228.991 6.000 L 224.363 6.000 223.681 4.803 L 223.000 3.605 200.000 3.605 L 177.000 3.605 176.319 4.803 M218.618 53.382 C 219.158 53.922,219.600 54.552,219.600 54.782 C 219.600 55.036,220.814 55.202,222.700 55.206 C 226.084 55.213,226.293 55.289,227.308 56.884 C 227.954 57.900,228.204 57.975,231.294 58.084 C 234.448 58.195,234.615 58.248,235.118 59.300 C 235.539 60.181,235.914 60.400,237.003 60.400 C 238.767 60.400,240.322 61.123,240.627 62.085 C 240.760 62.505,241.284 63.038,241.791 63.268 C 242.297 63.499,242.909 64.121,243.150 64.650 C 243.391 65.179,244.021 65.809,244.550 66.050 C 245.079 66.291,245.708 66.918,245.947 67.444 C 246.303 68.224,246.683 68.400,248.010 68.400 C 249.569 68.400,251.600 69.711,251.600 70.718 C 251.600 70.912,252.054 71.278,252.608 71.531 C 253.162 71.783,253.788 72.442,253.998 72.995 C 254.208 73.548,254.663 74.000,255.009 74.000 C 255.354 74.000,255.944 74.539,256.319 75.197 C 256.693 75.856,257.143 76.396,257.318 76.397 C 258.297 76.405,259.600 78.456,259.600 79.990 C 259.600 81.334,259.773 81.696,260.592 82.069 C 261.138 82.318,261.692 82.859,261.823 83.271 C 261.954 83.684,262.542 84.327,263.130 84.701 C 264.622 85.650,264.787 85.968,264.794 87.910 C 264.799 89.366,264.949 89.677,265.807 90.003 C 266.932 90.431,267.599 91.812,267.603 93.726 C 267.605 94.721,267.867 95.149,268.803 95.681 C 269.976 96.349,270.000 96.426,270.000 99.571 C 270.000 102.701,270.028 102.794,271.152 103.375 C 271.785 103.702,272.415 104.262,272.552 104.618 C 272.905 105.538,272.849 145.715,272.494 146.209 C 272.332 146.434,271.712 146.929,271.116 147.308 C 270.100 147.954,270.025 148.204,269.916 151.294 C 269.805 154.448,269.752 154.615,268.700 155.118 C 267.819 155.539,267.600 155.914,267.600 157.003 C 267.600 158.829,266.915 160.219,265.756 160.747 C 264.992 161.095,264.800 161.488,264.800 162.702 C 264.800 164.366,263.892 166.000,262.967 166.000 C 262.644 166.000,262.208 166.452,261.998 167.005 C 261.788 167.558,261.162 168.217,260.608 168.469 C 259.829 168.824,259.600 169.226,259.600 170.238 C 259.600 172.166,258.943 173.565,257.841 173.984 C 257.306 174.188,256.750 174.726,256.606 175.181 C 256.461 175.636,255.839 176.270,255.222 176.588 C 254.606 176.907,254.006 177.533,253.890 177.979 C 253.773 178.425,253.207 178.969,252.632 179.188 C 252.056 179.407,251.412 180.042,251.200 180.600 C 250.988 181.158,250.361 181.787,249.807 181.997 C 249.253 182.208,248.800 182.565,248.800 182.790 C 248.800 183.830,247.159 184.800,245.400 184.800 C 244.410 184.800,243.600 184.988,243.600 185.218 C 243.600 186.282,241.613 187.600,240.010 187.600 C 238.666 187.600,238.304 187.773,237.931 188.592 C 237.682 189.138,237.141 189.692,236.729 189.823 C 236.316 189.954,235.673 190.542,235.299 191.130 C 234.295 192.709,234.080 192.787,230.700 192.794 C 228.814 192.798,227.600 192.964,227.600 193.218 C 227.600 194.657,225.636 195.600,222.640 195.600 C 219.766 195.600,219.622 195.645,219.116 196.700 L 218.589 197.800 200.000 197.800 L 181.411 197.800 180.884 196.700 C 180.378 195.645,180.234 195.600,177.360 195.600 C 174.364 195.600,172.400 194.657,172.400 193.218 C 172.400 192.964,171.186 192.798,169.300 192.794 C 165.910 192.787,165.708 192.713,164.682 191.100 C 164.087 190.165,163.710 190.000,162.172 190.000 C 160.589 190.000,160.278 189.853,159.686 188.821 C 159.314 188.172,158.599 187.455,158.099 187.227 C 157.598 186.998,156.982 186.359,156.730 185.806 C 156.343 184.956,156.002 184.800,154.536 184.800 C 152.841 184.800,151.200 183.811,151.200 182.790 C 151.200 182.565,150.747 182.208,150.193 181.997 C 149.639 181.787,149.012 181.158,148.800 180.600 C 148.588 180.042,147.958 179.412,147.400 179.200 C 146.842 178.988,146.219 178.377,146.016 177.841 C 145.812 177.306,145.274 176.750,144.819 176.606 C 144.364 176.461,143.730 175.839,143.412 175.222 C 143.093 174.606,142.467 174.006,142.021 173.890 C 141.080 173.644,140.400 172.112,140.400 170.238 C 140.400 169.226,140.171 168.824,139.392 168.469 C 138.838 168.217,138.212 167.558,138.002 167.005 C 137.792 166.452,137.356 166.000,137.033 166.000 C 136.108 166.000,135.200 164.366,135.200 162.702 C 135.200 161.488,135.008 161.095,134.244 160.747 C 133.085 160.219,132.400 158.829,132.400 157.003 C 132.400 155.914,132.181 155.539,131.300 155.118 C 130.248 154.615,130.195 154.448,130.084 151.294 C 129.975 148.204,129.900 147.954,128.884 147.308 C 128.288 146.929,127.668 146.434,127.506 146.209 C 127.151 145.715,127.095 105.538,127.448 104.618 C 127.585 104.262,128.215 103.702,128.848 103.375 C 129.972 102.794,130.000 102.701,130.000 99.571 C 130.000 96.426,130.024 96.349,131.197 95.681 C 132.133 95.149,132.395 94.721,132.397 93.726 C 132.401 91.812,133.068 90.431,134.193 90.003 C 135.051 89.677,135.201 89.366,135.206 87.910 C 135.213 85.968,135.378 85.650,136.870 84.701 C 137.458 84.327,138.046 83.684,138.177 83.271 C 138.308 82.859,138.862 82.318,139.408 82.069 C 140.227 81.696,140.400 81.334,140.400 79.990 C 140.400 78.431,141.711 76.400,142.718 76.400 C 142.912 76.400,143.278 75.946,143.531 75.392 C 143.783 74.838,144.442 74.212,144.995 74.002 C 145.548 73.792,146.000 73.337,146.000 72.991 C 146.000 72.646,146.539 72.056,147.197 71.681 C 147.856 71.307,148.396 70.857,148.397 70.682 C 148.405 69.703,150.456 68.400,151.990 68.400 C 153.317 68.400,153.697 68.224,154.053 67.444 C 154.292 66.918,154.921 66.291,155.450 66.050 C 155.979 65.809,156.616 65.163,156.867 64.614 C 157.117 64.065,157.665 63.506,158.085 63.373 C 158.505 63.240,159.038 62.716,159.268 62.209 C 159.782 61.082,161.188 60.400,162.997 60.400 C 164.086 60.400,164.461 60.181,164.882 59.300 C 165.385 58.248,165.552 58.195,168.706 58.084 C 171.796 57.975,172.046 57.900,172.692 56.884 C 173.707 55.289,173.916 55.213,177.300 55.206 C 179.186 55.202,180.400 55.036,180.400 54.782 C 180.400 54.552,180.842 53.922,181.382 53.382 L 182.364 52.400 200.000 52.400 L 217.636 52.400 218.618 53.382 " stroke="none" fill="#fcfcfc" fill-rule="evenodd"></path><path id="path1" d="M158.800 0.600 C 158.800 1.093,158.089 1.200,154.800 1.200 L 150.800 1.200 150.800 2.582 L 150.800 3.963 148.100 4.082 L 145.400 4.200 145.275 5.500 L 145.149 6.800 142.575 6.800 L 140.000 6.800 140.000 8.000 L 140.000 9.200 137.400 9.200 L 134.800 9.200 134.800 10.582 L 134.800 11.963 132.100 12.082 L 129.400 12.200 129.275 13.500 L 129.149 14.800 126.575 14.800 L 124.000 14.800 124.000 15.975 C 124.000 17.008,123.843 17.164,122.700 17.275 C 121.557 17.385,121.385 17.557,121.275 18.700 C 121.164 19.843,121.008 20.000,119.975 20.000 C 118.899 20.000,118.800 20.118,118.800 21.400 L 118.800 22.800 116.000 22.800 L 113.200 22.800 113.200 24.000 C 113.200 25.067,113.067 25.200,112.000 25.200 C 110.895 25.200,110.800 25.311,110.800 26.600 C 110.800 27.933,110.733 28.000,109.400 28.000 C 108.067 28.000,108.000 28.067,108.000 29.400 C 108.000 30.733,107.933 30.800,106.600 30.800 C 105.311 30.800,105.200 30.895,105.200 32.000 C 105.200 33.067,105.067 33.200,104.000 33.200 C 102.898 33.200,102.800 33.313,102.800 34.582 L 102.800 35.963 100.100 36.082 L 97.400 36.200 97.286 40.100 L 97.171 44.000 95.986 44.000 C 94.897 44.000,94.800 44.115,94.800 45.400 C 94.800 46.733,94.733 46.800,93.400 46.800 C 92.118 46.800,92.000 46.899,92.000 47.975 C 92.000 49.008,91.843 49.164,90.700 49.275 L 89.400 49.400 89.282 52.100 C 89.164 54.797,89.162 54.800,87.982 54.800 C 86.941 54.800,86.800 54.940,86.800 55.975 C 86.800 57.008,86.643 57.164,85.500 57.275 L 84.200 57.400 84.082 60.100 L 83.963 62.800 82.582 62.800 L 81.200 62.800 81.200 65.400 L 81.200 68.000 80.000 68.000 C 78.895 68.000,78.800 68.111,78.800 69.400 C 78.800 70.733,78.733 70.800,77.400 70.800 L 76.000 70.800 76.000 74.800 L 76.000 78.800 74.600 78.800 L 73.200 78.800 73.200 82.800 L 73.200 86.800 72.000 86.800 L 70.800 86.800 70.800 91.975 L 70.800 97.149 69.500 97.275 L 68.200 97.400 68.200 128.000 L 68.200 158.600 69.500 158.725 L 70.800 158.851 70.800 164.025 L 70.800 169.200 72.000 169.200 L 73.200 169.200 73.200 173.200 L 73.200 177.200 74.582 177.200 L 75.963 177.200 76.082 179.900 L 76.200 182.600 77.500 182.725 L 78.800 182.851 78.800 185.425 L 78.800 188.000 80.000 188.000 L 81.200 188.000 81.200 190.600 L 81.200 193.200 82.600 193.200 C 83.933 193.200,84.000 193.267,84.000 194.600 C 84.000 195.933,84.067 196.000,85.400 196.000 L 86.800 196.000 86.800 198.600 L 86.800 201.200 87.982 201.200 C 89.162 201.200,89.164 201.203,89.282 203.900 L 89.400 206.600 90.700 206.725 C 91.843 206.836,92.000 206.992,92.000 208.025 C 92.000 209.101,92.118 209.200,93.400 209.200 C 94.733 209.200,94.800 209.267,94.800 210.600 C 94.800 211.889,94.895 212.000,96.000 212.000 L 97.200 212.000 97.200 214.600 L 97.200 217.200 98.600 217.200 C 99.933 217.200,100.000 217.267,100.000 218.600 C 100.000 219.933,100.067 220.000,101.400 220.000 C 102.733 220.000,102.800 220.067,102.800 221.400 C 102.800 222.689,102.895 222.800,104.000 222.800 C 105.067 222.800,105.200 222.933,105.200 224.000 C 105.200 225.102,105.313 225.200,106.582 225.200 L 107.963 225.200 108.082 227.900 L 108.200 230.600 109.500 230.725 C 110.643 230.836,110.800 230.992,110.800 232.025 C 110.800 233.058,110.942 233.200,111.975 233.200 C 113.008 233.200,113.164 233.357,113.275 234.500 C 113.385 235.643,113.557 235.815,114.700 235.925 L 116.000 236.051 116.000 238.625 L 116.000 241.200 117.400 241.200 C 118.733 241.200,118.800 241.267,118.800 242.600 C 118.800 243.889,118.895 244.000,120.000 244.000 L 121.200 244.000 121.200 246.600 L 121.200 249.200 122.582 249.200 L 123.963 249.200 124.082 251.900 L 124.200 254.600 125.500 254.725 C 126.643 254.836,126.800 254.992,126.800 256.025 C 126.800 257.060,126.941 257.200,127.982 257.200 C 129.162 257.200,129.164 257.203,129.282 259.900 L 129.400 262.600 130.700 262.725 L 132.000 262.851 132.000 265.425 L 132.000 268.000 133.400 268.000 C 134.733 268.000,134.800 268.067,134.800 269.400 C 134.800 270.689,134.895 270.800,136.000 270.800 C 137.067 270.800,137.200 270.933,137.200 272.000 C 137.200 273.102,137.313 273.200,138.582 273.200 L 139.963 273.200 140.082 275.900 L 140.200 278.600 141.500 278.725 L 142.800 278.851 142.800 281.425 L 142.800 284.000 144.000 284.000 L 145.200 284.000 145.200 286.600 L 145.200 289.200 146.600 289.200 C 147.933 289.200,148.000 289.267,148.000 290.600 C 148.000 291.933,148.067 292.000,149.400 292.000 L 150.800 292.000 150.800 294.600 L 150.800 297.200 151.982 297.200 C 153.162 297.200,153.164 297.203,153.282 299.900 L 153.400 302.600 154.700 302.725 L 156.000 302.851 156.000 305.425 L 156.000 308.000 157.400 308.000 L 158.800 308.000 158.800 310.600 L 158.800 313.200 159.982 313.200 C 161.162 313.200,161.164 313.203,161.282 315.900 L 161.400 318.600 162.700 318.725 L 164.000 318.851 164.000 321.425 L 164.000 324.000 165.400 324.000 L 166.800 324.000 166.800 326.600 L 166.800 329.200 167.982 329.200 C 169.162 329.200,169.164 329.203,169.282 331.900 L 169.400 334.600 170.686 334.724 L 171.972 334.849 172.086 338.724 L 172.200 342.600 173.500 342.725 L 174.800 342.851 174.800 345.425 L 174.800 348.000 176.000 348.000 L 177.200 348.000 177.200 350.600 L 177.200 353.200 178.600 353.200 L 180.000 353.200 180.000 357.200 L 180.000 361.200 181.400 361.200 L 182.800 361.200 182.800 365.200 L 182.800 369.200 184.000 369.200 L 185.200 369.200 185.200 373.200 L 185.200 377.200 186.600 377.200 L 188.000 377.200 188.000 382.600 L 188.000 388.000 189.400 388.000 L 190.800 388.000 190.800 393.400 L 190.800 398.800 192.000 398.800 C 192.800 398.800,193.200 399.000,193.200 399.400 C 193.200 399.913,194.356 400.000,201.200 400.000 L 209.200 400.000 209.200 396.600 L 209.200 393.200 210.600 393.200 L 212.000 393.200 212.000 389.200 L 212.000 385.200 213.400 385.200 L 214.800 385.200 214.800 381.200 L 214.800 377.200 216.000 377.200 L 217.200 377.200 217.200 372.025 L 217.200 366.851 218.500 366.725 L 219.800 366.600 219.918 363.900 L 220.037 361.200 221.418 361.200 L 222.800 361.200 222.800 357.200 L 222.800 353.200 224.000 353.200 L 225.200 353.200 225.200 349.200 L 225.200 345.200 226.600 345.200 L 228.000 345.200 228.000 341.200 L 228.000 337.200 229.400 337.200 L 230.800 337.200 230.800 334.600 L 230.800 332.000 232.000 332.000 L 233.200 332.000 233.200 329.425 L 233.200 326.851 234.500 326.725 L 235.800 326.600 235.914 322.724 L 236.028 318.849 237.314 318.724 L 238.600 318.600 238.718 315.900 C 238.836 313.203,238.838 313.200,240.018 313.200 L 241.200 313.200 241.200 310.600 L 241.200 308.000 242.600 308.000 L 244.000 308.000 244.000 305.425 L 244.000 302.851 245.300 302.725 L 246.600 302.600 246.718 299.900 C 246.836 297.203,246.838 297.200,248.018 297.200 L 249.200 297.200 249.200 294.600 L 249.200 292.000 250.600 292.000 L 252.000 292.000 252.000 289.425 L 252.000 286.851 253.300 286.725 L 254.600 286.600 254.718 283.900 C 254.836 281.203,254.838 281.200,256.018 281.200 L 257.200 281.200 257.200 278.600 L 257.200 276.000 258.600 276.000 L 260.000 276.000 260.000 273.425 L 260.000 270.851 261.300 270.725 C 262.443 270.615,262.615 270.443,262.725 269.300 C 262.836 268.157,262.992 268.000,264.025 268.000 L 265.200 268.000 265.200 265.425 L 265.200 262.851 266.500 262.725 L 267.800 262.600 267.918 259.900 L 268.037 257.200 269.418 257.200 C 270.687 257.200,270.800 257.102,270.800 256.000 C 270.800 254.933,270.933 254.800,272.000 254.800 L 273.200 254.800 273.200 252.000 L 273.200 249.200 274.600 249.200 L 276.000 249.200 276.000 246.625 L 276.000 244.051 277.300 243.925 C 278.443 243.815,278.615 243.643,278.725 242.500 C 278.836 241.357,278.992 241.200,280.025 241.200 C 281.058 241.200,281.200 241.058,281.200 240.025 C 281.200 238.992,281.357 238.836,282.500 238.725 L 283.800 238.600 283.918 235.900 L 284.037 233.200 285.418 233.200 C 286.687 233.200,286.800 233.102,286.800 232.000 C 286.800 230.933,286.933 230.800,288.000 230.800 C 289.105 230.800,289.200 230.689,289.200 229.400 C 289.200 228.067,289.267 228.000,290.600 228.000 C 291.933 228.000,292.000 227.933,292.000 226.600 C 292.000 225.267,292.067 225.200,293.400 225.200 C 294.689 225.200,294.800 225.105,294.800 224.000 C 294.800 222.933,294.933 222.800,296.000 222.800 C 297.105 222.800,297.200 222.689,297.200 221.400 C 297.200 220.067,297.267 220.000,298.600 220.000 L 300.000 220.000 300.000 217.425 L 300.000 214.851 301.300 214.725 C 302.443 214.615,302.615 214.443,302.725 213.300 C 302.836 212.157,302.992 212.000,304.025 212.000 C 305.101 212.000,305.200 211.882,305.200 210.600 C 305.200 209.267,305.267 209.200,306.600 209.200 C 307.882 209.200,308.000 209.101,308.000 208.025 C 308.000 206.992,308.157 206.836,309.300 206.725 L 310.600 206.600 310.718 203.900 C 310.836 201.203,310.838 201.200,312.018 201.200 L 313.200 201.200 313.200 198.600 L 313.200 196.000 314.600 196.000 C 315.933 196.000,316.000 195.933,316.000 194.600 C 316.000 193.267,316.067 193.200,317.400 193.200 L 318.800 193.200 318.800 190.600 L 318.800 188.000 320.000 188.000 L 321.200 188.000 321.200 185.425 L 321.200 182.851 322.500 182.725 L 323.800 182.600 323.918 179.900 L 324.037 177.200 325.418 177.200 L 326.800 177.200 326.800 173.200 L 326.800 169.200 328.000 169.200 L 329.200 169.200 329.200 164.025 L 329.200 158.851 330.500 158.725 L 331.800 158.600 331.800 128.000 L 331.800 97.400 330.500 97.275 L 329.200 97.149 329.200 91.975 L 329.200 86.800 328.000 86.800 L 326.800 86.800 326.800 82.800 L 326.800 78.800 325.400 78.800 L 324.000 78.800 324.000 74.800 L 324.000 70.800 322.600 70.800 C 321.267 70.800,321.200 70.733,321.200 69.400 C 321.200 68.111,321.105 68.000,320.000 68.000 L 318.800 68.000 318.800 65.400 L 318.800 62.800 317.418 62.800 L 316.037 62.800 315.918 60.100 L 315.800 57.400 314.500 57.275 C 313.357 57.164,313.200 57.008,313.200 55.975 C 313.200 54.940,313.059 54.800,312.018 54.800 C 310.838 54.800,310.836 54.797,310.718 52.100 L 310.600 49.400 309.300 49.275 C 308.157 49.164,308.000 49.008,308.000 47.975 C 308.000 46.899,307.882 46.800,306.600 46.800 C 305.267 46.800,305.200 46.733,305.200 45.400 C 305.200 44.115,305.103 44.000,304.014 44.000 L 302.829 44.000 302.714 40.100 L 302.600 36.200 299.900 36.082 L 297.200 35.963 297.200 34.582 C 297.200 33.313,297.102 33.200,296.000 33.200 C 294.933 33.200,294.800 33.067,294.800 32.000 C 294.800 30.895,294.689 30.800,293.400 30.800 C 292.067 30.800,292.000 30.733,292.000 29.400 C 292.000 28.067,291.933 28.000,290.600 28.000 C 289.267 28.000,289.200 27.933,289.200 26.600 C 289.200 25.311,289.105 25.200,288.000 25.200 C 286.933 25.200,286.800 25.067,286.800 24.000 L 286.800 22.800 284.000 22.800 L 281.200 22.800 281.200 21.400 C 281.200 20.118,281.101 20.000,280.025 20.000 C 278.992 20.000,278.836 19.843,278.725 18.700 C 278.615 17.557,278.443 17.385,277.300 17.275 C 276.157 17.164,276.000 17.008,276.000 15.975 L 276.000 14.800 273.425 14.800 L 270.851 14.800 270.725 13.500 L 270.600 12.200 267.900 12.082 L 265.200 11.963 265.200 10.582 L 265.200 9.200 262.600 9.200 L 260.000 9.200 260.000 8.000 L 260.000 6.800 257.425 6.800 L 254.851 6.800 254.725 5.500 L 254.600 4.200 251.900 4.082 L 249.200 3.963 249.200 2.582 L 249.200 1.200 245.200 1.200 C 241.911 1.200,241.200 1.093,241.200 0.600 C 241.200 0.071,236.356 0.000,200.000 0.000 C 163.644 0.000,158.800 0.071,158.800 0.600 M224.173 3.800 L 225.241 5.200 229.593 5.200 L 233.946 5.200 234.800 6.400 C 235.617 7.548,235.783 7.600,238.607 7.600 C 241.511 7.600,241.577 7.623,242.627 9.000 C 243.553 10.214,243.921 10.400,245.400 10.400 C 246.879 10.400,247.247 10.586,248.173 11.800 C 249.051 12.952,249.503 13.201,250.720 13.206 C 252.433 13.213,252.901 13.460,253.554 14.700 C 253.936 15.426,254.370 15.600,255.794 15.600 C 257.341 15.600,257.691 15.773,258.627 17.000 C 259.553 18.214,259.921 18.400,261.400 18.400 C 262.879 18.400,263.247 18.586,264.173 19.800 C 265.072 20.979,265.487 21.200,266.805 21.200 C 267.741 21.200,268.575 21.452,268.884 21.829 C 269.168 22.174,269.738 22.782,270.150 23.179 C 271.101 24.093,271.907 24.899,272.821 25.850 C 273.218 26.263,273.781 26.803,274.071 27.051 C 274.362 27.299,274.913 27.884,275.296 28.351 C 275.774 28.933,276.449 29.200,277.448 29.200 C 278.800 29.200,279.372 29.672,285.442 35.800 C 291.709 42.127,292.044 42.400,293.567 42.400 C 295.807 42.400,296.400 43.383,296.400 47.098 C 296.400 49.788,296.475 50.051,297.356 50.453 C 297.882 50.692,298.532 51.299,298.800 51.800 C 299.068 52.302,299.715 52.941,300.237 53.220 C 300.760 53.499,301.292 54.061,301.422 54.468 C 301.551 54.876,302.162 55.470,302.780 55.790 C 304.048 56.445,304.400 57.120,304.400 58.896 C 304.400 59.889,304.902 60.608,307.000 62.614 C 309.353 64.866,309.600 65.254,309.600 66.703 C 309.600 68.064,309.811 68.466,311.000 69.373 C 312.232 70.313,312.400 70.655,312.400 72.229 C 312.400 73.726,312.556 74.088,313.356 74.453 C 313.882 74.692,314.542 75.318,314.824 75.844 C 315.105 76.370,315.451 76.800,315.592 76.800 C 316.826 76.800,317.600 78.560,317.600 81.368 C 317.600 84.255,317.624 84.323,319.000 85.373 C 320.377 86.423,320.400 86.489,320.400 89.393 C 320.400 92.217,320.452 92.383,321.600 93.200 L 322.800 94.054 322.800 98.407 L 322.800 102.759 324.200 103.827 L 325.600 104.895 325.600 128.000 L 325.600 151.105 324.200 152.173 L 322.800 153.241 322.800 157.593 L 322.800 161.946 321.600 162.800 C 320.452 163.617,320.400 163.783,320.400 166.607 C 320.400 169.511,320.377 169.577,319.000 170.627 C 317.786 171.553,317.600 171.921,317.600 173.400 C 317.600 174.879,317.414 175.247,316.200 176.173 C 315.048 177.051,314.799 177.503,314.794 178.720 C 314.787 180.433,314.540 180.901,313.300 181.554 C 312.587 181.930,312.400 182.374,312.400 183.693 C 312.400 185.232,312.190 185.557,309.600 188.027 C 307.031 190.476,306.800 190.831,306.800 192.321 C 306.800 193.669,306.596 194.091,305.600 194.800 C 304.676 195.458,304.400 195.962,304.400 196.995 C 304.400 198.883,304.066 199.545,302.780 200.210 C 302.162 200.530,301.551 201.124,301.422 201.532 C 301.292 201.939,300.760 202.501,300.237 202.780 C 299.715 203.059,299.068 203.698,298.800 204.200 C 298.532 204.701,297.897 205.301,297.391 205.531 C 296.884 205.762,296.351 206.324,296.206 206.780 C 296.062 207.236,295.416 207.881,294.772 208.215 C 293.766 208.734,293.600 209.052,293.600 210.453 C 293.600 212.044,293.394 212.290,285.600 220.039 C 278.173 227.424,277.600 228.096,277.600 229.424 C 277.600 230.709,277.190 231.258,273.600 234.781 C 270.023 238.291,269.600 238.856,269.600 240.124 C 269.600 241.509,269.380 241.866,267.645 243.296 C 267.055 243.782,266.800 244.452,266.800 245.513 C 266.800 246.871,266.524 247.287,264.210 249.416 C 261.834 251.603,261.619 251.936,261.610 253.453 C 261.601 254.865,261.397 255.260,260.200 256.173 C 259.024 257.070,258.800 257.489,258.800 258.792 C 258.800 260.260,258.019 261.600,257.163 261.600 C 256.954 261.600,256.572 262.063,256.314 262.630 C 256.055 263.196,255.339 263.921,254.722 264.240 C 253.749 264.743,253.600 265.056,253.600 266.590 C 253.600 268.142,253.428 268.490,252.200 269.427 C 250.981 270.357,250.800 270.719,250.800 272.220 C 250.800 273.681,250.616 274.077,249.600 274.800 C 248.676 275.458,248.400 275.962,248.400 276.995 C 248.400 278.891,248.066 279.545,246.752 280.225 C 245.746 280.745,245.600 281.045,245.600 282.590 C 245.600 284.142,245.428 284.490,244.200 285.427 C 242.981 286.357,242.800 286.719,242.800 288.220 C 242.800 289.681,242.616 290.077,241.600 290.800 C 240.676 291.458,240.400 291.962,240.400 292.995 C 240.400 294.891,240.066 295.545,238.752 296.225 C 237.746 296.745,237.600 297.045,237.600 298.590 C 237.600 300.142,237.428 300.490,236.200 301.427 C 234.981 302.357,234.800 302.719,234.800 304.220 C 234.800 305.681,234.616 306.077,233.600 306.800 C 232.676 307.458,232.400 307.962,232.400 308.995 C 232.400 310.891,232.066 311.545,230.752 312.225 C 229.631 312.804,229.600 312.905,229.600 315.963 C 229.600 319.084,229.591 319.112,228.200 320.173 C 227.048 321.051,226.799 321.503,226.794 322.720 C 226.787 324.433,226.540 324.901,225.300 325.554 C 224.574 325.936,224.400 326.370,224.400 327.794 C 224.400 329.341,224.227 329.691,223.000 330.627 C 221.625 331.676,221.600 331.747,221.600 334.619 C 221.600 337.589,221.539 337.735,219.645 339.296 C 218.923 339.891,218.800 340.426,218.800 342.969 C 218.800 345.820,218.749 345.982,217.600 346.800 C 216.452 347.617,216.400 347.783,216.400 350.607 C 216.400 353.511,216.377 353.577,215.000 354.627 C 213.786 355.553,213.600 355.921,213.600 357.400 C 213.600 358.879,213.414 359.247,212.200 360.173 L 210.800 361.241 210.800 365.593 L 210.800 369.946 209.600 370.800 C 208.452 371.617,208.400 371.783,208.400 374.607 C 208.400 377.511,208.377 377.577,207.000 378.627 C 205.625 379.676,205.600 379.747,205.600 382.619 C 205.600 385.589,205.539 385.735,203.645 387.296 C 202.884 387.923,202.800 388.405,202.800 392.168 C 202.800 396.263,202.405 397.600,201.194 397.600 C 200.498 397.600,199.600 395.789,199.600 394.386 C 199.600 393.255,199.346 392.762,198.400 392.063 L 197.200 391.176 197.200 386.836 L 197.200 382.495 195.800 381.427 L 194.400 380.359 194.400 376.027 L 194.400 371.695 193.000 370.627 C 191.623 369.577,191.600 369.511,191.600 366.607 C 191.600 363.783,191.548 363.617,190.400 362.800 C 189.253 361.983,189.200 361.816,189.200 359.001 C 189.200 356.010,189.140 355.866,187.245 354.304 C 186.524 353.710,186.400 353.173,186.400 350.651 C 186.400 347.743,186.377 347.678,185.000 346.627 C 183.773 345.691,183.600 345.341,183.600 343.794 C 183.600 342.370,183.426 341.936,182.700 341.554 C 181.460 340.901,181.213 340.433,181.206 338.720 C 181.201 337.503,180.952 337.051,179.800 336.173 C 178.409 335.112,178.400 335.084,178.400 331.963 C 178.400 328.905,178.369 328.804,177.248 328.225 C 175.934 327.545,175.600 326.891,175.600 324.995 C 175.600 323.962,175.324 323.458,174.400 322.800 C 173.384 322.077,173.200 321.681,173.200 320.220 C 173.200 318.719,173.019 318.357,171.800 317.427 C 170.572 316.490,170.400 316.142,170.400 314.590 C 170.400 313.045,170.254 312.745,169.248 312.225 C 167.934 311.545,167.600 310.891,167.600 308.995 C 167.600 307.962,167.324 307.458,166.400 306.800 C 165.384 306.077,165.200 305.681,165.200 304.220 C 165.200 302.719,165.019 302.357,163.800 301.427 C 162.572 300.490,162.400 300.142,162.400 298.590 C 162.400 297.045,162.254 296.745,161.248 296.225 C 159.934 295.545,159.600 294.891,159.600 292.995 C 159.600 291.962,159.324 291.458,158.400 290.800 C 157.404 290.091,157.200 289.669,157.200 288.321 C 157.200 286.831,156.969 286.476,154.400 284.027 C 151.810 281.557,151.600 281.232,151.600 279.693 C 151.600 278.374,151.413 277.930,150.700 277.554 C 149.460 276.901,149.213 276.433,149.206 274.720 C 149.201 273.503,148.952 273.051,147.800 272.173 C 146.617 271.271,146.400 270.860,146.400 269.528 C 146.400 268.057,146.129 267.685,142.400 264.039 C 138.609 260.332,138.400 260.041,138.400 258.474 C 138.400 257.057,138.235 256.735,137.248 256.225 C 135.952 255.555,135.600 254.888,135.600 253.104 C 135.600 252.111,135.098 251.392,133.000 249.386 C 130.647 247.134,130.400 246.746,130.400 245.297 C 130.400 243.936,130.189 243.534,129.000 242.627 C 127.768 241.687,127.600 241.345,127.600 239.771 C 127.600 238.274,127.444 237.912,126.644 237.547 C 126.118 237.308,125.458 236.682,125.176 236.156 C 124.895 235.630,124.549 235.200,124.408 235.200 C 123.560 235.200,122.400 233.431,122.400 232.137 C 122.400 230.852,121.990 230.304,118.400 226.781 C 114.800 223.248,114.400 222.711,114.400 221.415 C 114.400 220.095,113.946 219.525,109.000 214.636 C 103.794 209.490,103.600 209.239,103.600 207.641 C 103.600 206.281,103.428 205.905,102.644 205.547 C 102.118 205.308,101.468 204.701,101.200 204.200 C 100.932 203.698,100.285 203.059,99.763 202.780 C 99.240 202.501,98.708 201.939,98.578 201.532 C 98.449 201.124,97.838 200.530,97.220 200.210 C 95.934 199.545,95.600 198.883,95.600 196.995 C 95.600 195.962,95.324 195.458,94.400 194.800 C 93.404 194.091,93.200 193.669,93.200 192.321 C 93.200 190.831,92.969 190.476,90.400 188.027 C 87.810 185.557,87.600 185.232,87.600 183.693 C 87.600 182.374,87.413 181.930,86.700 181.554 C 85.460 180.901,85.213 180.433,85.206 178.720 C 85.201 177.503,84.952 177.051,83.800 176.173 C 82.586 175.247,82.400 174.879,82.400 173.400 C 82.400 171.921,82.214 171.553,81.000 170.627 C 79.623 169.577,79.600 169.511,79.600 166.607 C 79.600 163.783,79.548 163.617,78.400 162.800 L 77.200 161.946 77.200 157.593 L 77.200 153.241 75.800 152.173 L 74.400 151.105 74.400 128.000 L 74.400 104.895 75.800 103.827 L 77.200 102.759 77.200 98.407 L 77.200 94.054 78.400 93.200 C 79.548 92.383,79.600 92.217,79.600 89.393 C 79.600 86.489,79.623 86.423,81.000 85.373 C 82.376 84.323,82.400 84.255,82.400 81.368 C 82.400 78.560,83.174 76.800,84.408 76.800 C 84.549 76.800,84.895 76.370,85.176 75.844 C 85.458 75.318,86.118 74.692,86.644 74.453 C 87.444 74.088,87.600 73.726,87.600 72.229 C 87.600 70.655,87.768 70.313,89.000 69.373 C 90.189 68.466,90.400 68.064,90.400 66.703 C 90.400 65.254,90.647 64.866,93.000 62.614 C 95.098 60.608,95.600 59.889,95.600 58.896 C 95.600 57.120,95.952 56.445,97.220 55.790 C 97.838 55.470,98.449 54.876,98.578 54.468 C 98.708 54.061,99.240 53.499,99.763 53.220 C 100.285 52.941,100.932 52.302,101.200 51.800 C 101.468 51.299,102.118 50.692,102.644 50.453 C 103.525 50.051,103.600 49.788,103.600 47.098 C 103.600 43.383,104.193 42.400,106.433 42.400 C 107.956 42.400,108.291 42.127,114.558 35.800 C 120.628 29.672,121.200 29.200,122.552 29.200 C 123.551 29.200,124.226 28.933,124.704 28.351 C 125.087 27.884,125.638 27.299,125.929 27.051 C 126.219 26.803,126.782 26.263,127.179 25.850 C 128.093 24.899,128.899 24.093,129.850 23.179 C 130.263 22.782,130.832 22.174,131.116 21.829 C 131.425 21.452,132.259 21.200,133.195 21.200 C 134.513 21.200,134.928 20.979,135.827 19.800 C 136.753 18.586,137.121 18.400,138.600 18.400 C 140.079 18.400,140.447 18.214,141.373 17.000 C 142.309 15.773,142.659 15.600,144.206 15.600 C 145.630 15.600,146.064 15.426,146.446 14.700 C 147.099 13.460,147.567 13.213,149.280 13.206 C 150.497 13.201,150.949 12.952,151.827 11.800 C 152.753 10.586,153.121 10.400,154.600 10.400 C 156.079 10.400,156.447 10.214,157.373 9.000 C 158.423 7.623,158.489 7.600,161.393 7.600 C 164.217 7.600,164.383 7.548,165.200 6.400 L 166.054 5.200 170.407 5.200 L 174.759 5.200 175.827 3.800 L 176.895 2.400 200.000 2.400 L 223.105 2.400 224.173 3.800 M181.356 55.002 C 180.141 56.368,180.042 56.400,177.070 56.400 C 174.323 56.400,173.982 56.487,173.554 57.300 C 172.844 58.648,172.453 58.787,169.347 58.794 C 166.560 58.800,166.470 58.832,165.427 60.200 C 164.487 61.432,164.145 61.600,162.571 61.600 C 161.038 61.600,160.716 61.747,160.314 62.630 C 160.055 63.196,159.352 63.915,158.750 64.226 C 158.149 64.537,157.551 65.124,157.422 65.532 C 157.292 65.939,156.740 66.511,156.193 66.804 C 155.647 67.096,155.200 67.451,155.200 67.592 C 155.200 68.431,153.431 69.600,152.163 69.600 C 150.038 69.600,141.600 78.038,141.600 80.163 C 141.600 81.431,140.431 83.200,139.592 83.200 C 139.451 83.200,139.105 83.630,138.824 84.156 C 138.542 84.682,137.882 85.308,137.356 85.547 C 136.556 85.912,136.400 86.274,136.400 87.771 C 136.400 89.345,136.232 89.687,135.000 90.627 C 133.786 91.553,133.600 91.921,133.600 93.400 C 133.600 94.879,133.414 95.247,132.200 96.173 C 130.822 97.224,130.800 97.287,130.800 100.208 C 130.800 103.042,130.746 103.216,129.600 104.063 L 128.400 104.950 128.400 125.461 L 128.400 145.972 129.300 146.446 C 130.648 147.156,130.787 147.547,130.794 150.653 C 130.800 153.440,130.832 153.530,132.200 154.573 C 133.428 155.510,133.600 155.858,133.600 157.410 C 133.600 158.955,133.746 159.255,134.752 159.775 C 136.048 160.445,136.400 161.112,136.400 162.896 C 136.400 163.889,136.902 164.608,139.000 166.614 C 141.261 168.777,141.600 169.290,141.600 170.546 C 141.600 172.731,152.467 183.600,154.651 183.600 C 155.885 183.600,156.425 183.967,158.773 186.400 C 161.072 188.783,161.678 189.201,162.837 189.206 C 164.432 189.213,164.910 189.476,165.554 190.700 C 165.982 191.512,166.323 191.600,169.060 191.600 C 172.014 191.600,172.125 191.636,173.374 193.000 C 174.610 194.349,174.760 194.400,177.508 194.400 C 180.297 194.400,180.383 194.431,181.427 195.800 L 182.495 197.200 200.000 197.200 L 217.505 197.200 218.573 195.800 C 219.617 194.431,219.703 194.400,222.492 194.400 C 225.240 194.400,225.390 194.349,226.626 193.000 C 227.877 191.634,227.982 191.600,230.963 191.600 C 233.795 191.600,234.049 191.531,234.453 190.644 C 234.692 190.118,235.318 189.458,235.844 189.176 C 236.370 188.895,236.800 188.549,236.800 188.408 C 236.800 187.551,238.570 186.400,239.887 186.400 C 241.040 186.400,241.610 186.109,242.626 185.000 C 243.633 183.900,244.214 183.600,245.338 183.600 C 247.533 183.600,258.400 172.739,258.400 170.546 C 258.400 169.290,258.739 168.777,261.000 166.614 C 263.098 164.608,263.600 163.889,263.600 162.896 C 263.600 161.112,263.952 160.445,265.248 159.775 C 266.254 159.255,266.400 158.955,266.400 157.410 C 266.400 155.858,266.572 155.510,267.800 154.573 C 269.168 153.530,269.200 153.440,269.206 150.653 C 269.213 147.547,269.352 147.156,270.700 146.446 L 271.600 145.972 271.600 125.461 L 271.600 104.950 270.400 104.063 C 269.254 103.216,269.200 103.042,269.200 100.208 C 269.200 97.287,269.178 97.224,267.800 96.173 C 266.586 95.247,266.400 94.879,266.400 93.400 C 266.400 91.921,266.214 91.553,265.000 90.627 C 263.768 89.687,263.600 89.345,263.600 87.771 C 263.600 86.274,263.444 85.912,262.644 85.547 C 262.118 85.308,261.458 84.682,261.176 84.156 C 260.895 83.630,260.549 83.200,260.408 83.200 C 259.569 83.200,258.400 81.431,258.400 80.163 C 258.400 78.038,249.962 69.600,247.837 69.600 C 246.569 69.600,244.800 68.431,244.800 67.592 C 244.800 67.451,244.353 67.096,243.807 66.804 C 243.260 66.511,242.705 65.930,242.572 65.512 C 242.439 65.093,241.883 64.547,241.335 64.298 C 240.788 64.048,240.079 63.339,239.760 62.722 C 239.257 61.749,238.944 61.600,237.410 61.600 C 235.858 61.600,235.510 61.428,234.573 60.200 C 233.530 58.832,233.440 58.800,230.653 58.794 C 227.547 58.787,227.156 58.648,226.446 57.300 C 226.018 56.488,225.677 56.400,222.940 56.400 C 219.986 56.400,219.875 56.364,218.626 55.000 L 217.343 53.600 199.972 53.602 L 182.600 53.604 181.356 55.002 M177.600 84.720 C 177.600 85.642,178.358 86.400,179.280 86.400 C 179.836 86.400,180.000 86.719,180.000 87.800 C 180.000 89.116,180.079 89.200,181.312 89.200 C 182.387 89.200,182.702 89.406,183.054 90.338 C 183.483 91.475,184.730 92.000,187.000 92.000 C 187.673 92.000,187.958 92.292,188.132 93.159 C 188.349 94.243,188.520 94.335,190.800 94.600 C 193.080 94.865,193.251 94.957,193.468 96.041 L 193.700 97.200 200.000 97.200 L 206.300 97.200 206.532 96.041 C 206.749 94.957,206.920 94.865,209.200 94.600 C 211.480 94.335,211.651 94.243,211.868 93.159 C 212.042 92.292,212.327 92.000,213.000 92.000 C 215.270 92.000,216.517 91.475,216.946 90.338 C 217.298 89.406,217.613 89.200,218.688 89.200 C 219.921 89.200,220.000 89.116,220.000 87.800 C 220.000 86.719,220.164 86.400,220.720 86.400 C 221.642 86.400,222.400 85.642,222.400 84.720 C 222.400 83.315,225.051 83.755,225.342 85.208 C 225.530 86.149,225.848 86.470,226.780 86.656 C 227.523 86.805,228.077 87.218,228.242 87.748 C 228.553 88.746,229.122 89.185,230.113 89.194 C 230.506 89.197,231.457 89.830,232.227 90.600 L 233.627 92.000 232.234 92.000 L 230.842 92.000 230.721 94.094 C 230.613 95.959,230.459 96.276,229.315 96.994 L 228.031 97.800 228.015 104.300 L 228.000 110.800 226.847 110.800 C 225.458 110.800,225.213 111.460,225.205 115.220 C 225.200 118.037,225.599 118.800,227.080 118.800 C 227.836 118.800,228.000 119.014,228.000 120.000 C 228.000 121.105,228.111 121.200,229.400 121.200 C 230.733 121.200,230.800 121.267,230.800 122.600 C 230.800 123.889,230.895 124.000,232.000 124.000 C 232.986 124.000,233.200 124.164,233.200 124.920 C 233.200 126.092,233.908 126.800,235.080 126.800 C 235.836 126.800,236.000 127.014,236.000 128.000 C 236.000 129.105,236.111 129.200,237.400 129.200 C 238.733 129.200,238.800 129.267,238.800 130.600 C 238.800 131.933,238.867 132.000,240.200 132.000 C 241.489 132.000,241.600 132.095,241.600 133.200 C 241.600 134.399,241.603 134.400,243.975 134.400 L 246.349 134.400 246.511 133.100 C 246.599 132.385,246.701 133.631,246.736 135.868 L 246.800 139.936 245.641 140.191 C 244.295 140.487,244.013 141.219,244.005 144.438 C 244.000 146.715,243.527 147.551,241.923 148.118 C 241.377 148.311,241.222 148.070,241.123 146.879 L 241.000 145.400 233.200 145.278 C 222.288 145.106,220.435 145.327,220.133 146.834 C 219.905 147.976,219.847 148.000,217.350 148.000 L 214.800 148.000 214.800 149.400 C 214.800 150.677,214.699 150.800,213.643 150.800 C 212.280 150.800,212.000 151.343,212.000 153.983 C 212.000 155.781,211.927 155.915,210.834 156.133 C 209.726 156.355,209.653 156.498,209.387 158.983 C 209.154 161.161,208.983 161.600,208.367 161.600 C 207.116 161.600,206.756 163.005,206.802 167.713 C 206.826 170.181,206.835 172.785,206.823 173.500 L 206.800 174.800 200.000 174.800 L 193.200 174.800 193.177 173.500 C 193.165 172.785,193.174 170.181,193.198 167.713 C 193.244 163.005,192.884 161.600,191.633 161.600 C 191.017 161.600,190.846 161.161,190.613 158.983 C 190.347 156.498,190.274 156.355,189.166 156.133 C 188.073 155.915,188.000 155.781,188.000 153.983 C 188.000 151.343,187.720 150.800,186.357 150.800 C 185.301 150.800,185.200 150.677,185.200 149.400 L 185.200 148.000 182.650 148.000 C 180.153 148.000,180.095 147.976,179.867 146.834 C 179.565 145.327,177.712 145.106,166.800 145.278 L 159.000 145.400 158.877 146.879 C 158.778 148.070,158.623 148.311,158.077 148.118 C 156.473 147.551,156.000 146.715,155.995 144.438 C 155.987 141.219,155.705 140.487,154.359 140.191 L 153.200 139.936 153.264 135.868 C 153.299 133.631,153.401 132.385,153.489 133.100 L 153.651 134.400 156.025 134.400 C 158.397 134.400,158.400 134.399,158.400 133.200 C 158.400 132.095,158.511 132.000,159.800 132.000 C 161.133 132.000,161.200 131.933,161.200 130.600 C 161.200 129.267,161.267 129.200,162.600 129.200 C 163.889 129.200,164.000 129.105,164.000 128.000 C 164.000 127.014,164.164 126.800,164.920 126.800 C 166.092 126.800,166.800 126.092,166.800 124.920 C 166.800 124.164,167.014 124.000,168.000 124.000 C 169.105 124.000,169.200 123.889,169.200 122.600 C 169.200 121.267,169.267 121.200,170.600 121.200 C 171.889 121.200,172.000 121.105,172.000 120.000 C 172.000 119.014,172.164 118.800,172.920 118.800 C 174.401 118.800,174.800 118.037,174.795 115.220 C 174.787 111.460,174.542 110.800,173.153 110.800 L 172.000 110.800 171.999 104.300 C 171.997 97.464,171.451 95.200,169.806 95.200 C 169.366 95.200,169.200 94.762,169.200 93.600 C 169.200 92.035,169.169 92.000,167.787 92.000 L 166.373 92.000 167.773 90.600 C 168.543 89.830,169.494 89.197,169.887 89.194 C 170.878 89.185,171.447 88.746,171.758 87.748 C 171.923 87.218,172.477 86.805,173.220 86.656 C 174.152 86.470,174.470 86.149,174.658 85.208 C 174.949 83.755,177.600 83.315,177.600 84.720 M196.140 104.000 C 195.962 104.892,195.677 105.200,195.030 105.200 C 193.925 105.200,193.200 105.919,193.200 107.015 C 193.200 107.747,192.869 107.923,190.900 108.235 C 188.794 108.569,188.589 108.693,188.473 109.700 C 188.364 110.653,188.170 110.800,187.023 110.800 C 185.880 110.800,185.668 110.959,185.466 111.972 C 185.283 112.886,184.986 113.172,184.116 113.272 C 183.182 113.379,182.980 113.612,182.875 114.700 C 182.753 115.966,182.700 116.000,180.851 116.000 C 177.865 116.000,177.487 116.493,177.440 120.439 C 177.389 124.688,177.721 125.915,179.006 126.237 C 179.943 126.473,180.002 126.649,180.040 129.343 C 180.095 133.291,180.391 134.172,181.716 134.327 C 182.798 134.453,182.800 134.459,182.800 137.794 C 182.800 141.778,182.991 142.400,184.217 142.400 C 184.976 142.400,185.173 142.641,185.275 143.700 L 185.400 145.000 200.000 145.000 L 214.600 145.000 214.724 143.724 C 214.825 142.675,215.038 142.427,215.924 142.324 L 217.000 142.200 217.114 138.300 C 217.228 134.442,217.240 134.400,218.224 134.400 C 219.549 134.400,220.000 133.135,220.000 129.417 C 220.000 126.636,220.050 126.474,220.986 126.239 C 222.344 125.899,222.969 123.464,222.638 119.800 C 222.341 116.503,221.879 116.000,219.149 116.000 C 217.300 116.000,217.247 115.966,217.125 114.700 C 217.020 113.612,216.818 113.379,215.884 113.272 C 215.014 113.172,214.717 112.886,214.534 111.972 C 214.332 110.959,214.120 110.800,212.977 110.800 C 211.830 110.800,211.636 110.653,211.527 109.700 C 211.411 108.693,211.206 108.569,209.100 108.235 C 207.131 107.923,206.800 107.747,206.800 107.015 C 206.800 105.919,206.075 105.200,204.970 105.200 C 204.323 105.200,204.038 104.892,203.860 104.000 L 203.620 102.800 200.000 102.800 L 196.380 102.800 196.140 104.000 " stroke="none" fill="#040404" fill-rule="evenodd"></path><path id="path2" d="" stroke="none" fill="#bc10080" fill-rule="evenodd"></path><path id="path3" d="" stroke="none" fill="#bc10080" fill-rule="evenodd"></path><path id="path4" d="" stroke="none" fill="#bc10080" fill-rule="evenodd"></path></g></svg>